<?xml version="1.0" standalone="no"?><!DOCTYPE svg PUBLIC "-//W3C//DTD SVG 1.1//EN" "http://www.w3.org/Graphics/SVG/1.1/DTD/svg11.dtd"><svg class="icon" width="200px" height="200.00px" viewBox="0 0 1024 1024" version="1.1" xmlns="http://www.w3.org/2000/svg"><path fill="#333333" d="M552.634921 1024h-438.857143c-40.126984 0-72.634921-32.507937-72.634921-72.126984V72.126984c0-39.619048 32.507937-72.126984 72.634921-72.126984h791.365079c40.126984 0 72.634921 32.507937 72.634921 72.126984v580.063492c0 14.222222-11.174603 25.396825-25.396826 25.396826s-25.396825-11.174603-25.396825-25.396826V72.126984c0-11.68254-9.650794-21.333333-21.84127-21.333333h-791.365079c-12.190476 0-21.84127 9.650794-21.84127 21.333333v879.746032c0 11.68254 9.650794 21.333333 21.84127 21.333333h438.857143c14.222222 0 25.396825 11.174603 25.396825 25.396826s-11.68254 25.396825-25.396825 25.396825z"  /><path fill="#333333" d="M697.396825 244.825397h-376.888888c-14.222222 0-25.396825-11.174603-25.396826-25.396826s11.174603-25.396825 25.396826-25.396825h376.888888c14.222222 0 25.396825 11.174603 25.396826 25.396825s-11.174603 25.396825-25.396826 25.396826zM485.587302 829.460317h-165.079365c-14.222222 0-25.396825-11.174603-25.396826-25.396825s11.174603-25.396825 25.396826-25.396825h165.079365c14.222222 0 25.396825 11.174603 25.396825 25.396825s-11.174603 25.396825-25.396825 25.396825zM697.396825 1016.380952c-7.111111 0-14.222222-2.031746-19.809523-6.603174-11.174603-7.619048-16.253968-20.825397-14.222223-34.031746l15.238096-95.492064-66.031746-68.063492c-9.142857-9.142857-12.190476-22.857143-8.126985-35.047619 4.063492-12.190476 14.730159-21.333333 27.936508-23.365079l89.396826-13.714286 39.619047-84.825397c5.587302-12.190476 17.777778-19.809524 31.492064-19.809524s25.904762 7.619048 31.492063 19.809524l39.619048 84.825397 89.396825 13.714286c12.698413 2.031746 23.365079 10.666667 27.936508 23.365079 4.063492 12.190476 1.015873 25.904762-8.126984 35.047619l-66.031746 68.063492 15.238095 95.492064c2.031746 13.206349-3.555556 26.412698-14.222222 34.031746-11.174603 7.619048-25.396825 8.634921-37.079365 2.031746l-78.730159-43.68254-78.730158 43.68254c-5.079365 3.047619-10.666667 4.571429-16.253969 4.571428z m95.492064-101.587301c5.587302 0 11.68254 1.52381 16.761905 4.571428l57.904762 32-11.68254-70.603174c-1.52381-10.666667 1.52381-21.84127 9.142857-29.968254l49.777778-51.301588-67.047619-10.15873c-11.68254-1.52381-21.333333-9.142857-26.412699-19.809523l-28.952381-61.968254-28.952381 61.968254c-5.079365 10.666667-14.730159 17.777778-26.412698 19.809523l-67.047619 10.15873 49.777778 51.301588c7.619048 7.619048 11.174603 18.793651 9.142857 29.968254l-11.68254 70.603174 57.904762-32c6.095238-3.047619 11.68254-4.571429 17.777778-4.571428z"  /></svg>