<?xml version="1.0" standalone="no"?><!DOCTYPE svg PUBLIC "-//W3C//DTD SVG 1.1//EN" "http://www.w3.org/Graphics/SVG/1.1/DTD/svg11.dtd"><svg class="icon" width="200px" height="200.00px" viewBox="0 0 1024 1024" version="1.1" xmlns="http://www.w3.org/2000/svg"><path fill="#333333" d="M739.456409 946.983929c-24.534789 0-47.964408-5.050016-67.756174-14.588253-4.777817-1.665942-155.812695-58.557674-343.14936-247.831459-167.408801-169.263032-233.634108-327.592037-236.371453-334.257853-29.108968-55.939033-15.489786-140.408867 31.029714-186.893574l69.625754-69.64315c22.39301-22.358217 61.532425-22.324448 83.925434 0.067538L434.18882 251.265674c11.290137 11.290137 17.427928 26.235524 17.291828 42.047652-0.118704 15.778358-6.478552 30.571273-17.903765 41.622979l-60.257386 58.437947-0.067538 4.710279 252.235768 252.235768 4.709255-0.067538 58.437948-60.274782c22.154579-22.835078 61.141522-23.12365 83.670631-0.595564l157.411099 157.411099c23.157419 23.157419 23.192212 60.819181 0.067538 83.942831l-69.625753 69.625753c-29.193903 29.193903-74.318636 46.62183-120.702036 46.621831zM234.730069 111.265106c-6.54609 0-12.68388 2.533706-17.274432 7.124258l-69.625754 69.64315c-35.94363 35.94363-46.978964 103.546308-24.092721 147.634432 1.292436 2.958378 67.314105 160.353105 229.570559 324.411601 181.350324 183.239348 330.498226 239.756549 331.977927 240.300948 48.287773 23.038716 115.959012 9.606799 150.253073-24.63712l69.625753-69.625754c4.624321-4.624321 7.175423-10.779507 7.175424-17.309224 0-6.54609-2.584871-12.717649-7.242962-17.394159L747.685837 614.002139c-9.215896-9.232269-24.994254-9.129938-34.056654 0.221034l-58.437947 60.274781c-14.316054 14.792914-39.73498 15.047718-54.323233 0.442069L348.631212 422.704255c-7.294127-7.294127-11.255345-16.95209-11.187807-27.220969 0.084934-10.286274 4.217045-19.910469 11.629875-27.102264l60.274782-58.455344c4.675486-4.523013 7.260357-10.524704 7.311523-16.900925 0.067538-6.40999-2.465145-12.496615-7.090489-17.138332L252.140601 118.457926c-4.641717-4.641717-10.830673-7.192819-17.410532-7.19282z" /></svg>