<?xml version="1.0" standalone="no"?><!DOCTYPE svg PUBLIC "-//W3C//DTD SVG 1.1//EN" "http://www.w3.org/Graphics/SVG/1.1/DTD/svg11.dtd"><svg class="icon" width="200px" height="200.00px" viewBox="0 0 1024 1024" version="1.1" xmlns="http://www.w3.org/2000/svg"><path fill="#333333" d="M744 240H424a40 40 0 0 0 0 80h320a40 40 0 0 0 0-80z"  /><path fill="#333333" d="M280 280m-40 0a40 40 0 1 0 80 0 40 40 0 1 0-80 0Z"  /><path fill="#333333" d="M744 472H424a40 40 0 0 0 0 80h320a40 40 0 0 0 0-80z"  /><path fill="#333333" d="M280 512m-40 0a40 40 0 1 0 80 0 40 40 0 1 0-80 0Z"  /><path fill="#333333" d="M744 704H424a40 40 0 0 0 0 80h320a40 40 0 0 0 0-80z"  /><path fill="#333333" d="M280 744m-40 0a40 40 0 1 0 80 0 40 40 0 1 0-80 0Z"  /><path fill="#333333" d="M858 64H166a70 70 0 0 0-70 70v756a70 70 0 0 0 70 70h692a70 70 0 0 0 70-70V134a70 70 0 0 0-70-70z m-10 776a40 40 0 0 1-40 40H216a40 40 0 0 1-40-40V184a40 40 0 0 1 40-40h592a40 40 0 0 1 40 40z"  /></svg>